<svg viewBox="0 0 400 200" xmlns="http://www.w3.org/2000/svg">
  <!-- Road -->
  <rect x="0" y="150" width="400" height="50" fill="#666"/>
  <rect x="0" y="170" width="400" height="4" fill="#fff"/>
  
  <!-- Truck Body -->
  <rect x="80" y="100" width="120" height="50" fill="#8c1b1c"/>
  
  <!-- Truck Cab -->
  <rect x="200" y="110" width="40" height="40" fill="#f9d6a5"/>
  
  <!-- Windshield -->
  <rect x="205" y="115" width="30" height="20" fill="#4A90E2" opacity="0.8"/>
  
  <!-- Door -->
  <line x1="220" y1="115" x2="220" y2="150" stroke="#8c1b1c" stroke-width="2"/>
  <circle cx="215" cy="130" r="2" fill="#666"/>
  
  <!-- Cargo Container -->
  <rect x="85" y="105" width="110" height="40" fill="#34C759"/>
  <rect x="90" y="110" width="25" height="15" fill="#FF3B30"/>
  <rect x="120" y="110" width="25" height="15" fill="#007AFF"/>
  <rect x="150" y="110" width="25" height="15" fill="#FF9500"/>
  <rect x="90" y="125" width="25" height="15" fill="#5856D6"/>
  <rect x="120" y="125" width="25" height="15" fill="#f9d6a5"/>
  <rect x="150" y="125" width="25" height="15" fill="#34C759"/>
  
  <!-- Wheels -->
  <circle cx="110" cy="155" r="12" fill="#333"/>
  <circle cx="110" cy="155" r="8" fill="#666"/>
  <circle cx="180" cy="155" r="12" fill="#333"/>
  <circle cx="180" cy="155" r="8" fill="#666"/>
  <circle cx="220" cy="155" r="12" fill="#333"/>
  <circle cx="220" cy="155" r="8" fill="#666"/>
  
  <!-- Headlights -->
  <circle cx="245" cy="125" r="4" fill="#FFD700"/>
  <circle cx="245" cy="135" r="4" fill="#FFD700"/>
  
  <!-- Exhaust Smoke -->
  <circle cx="75" cy="105" r="3" fill="#ddd" opacity="0.7"/>
  <circle cx="70" cy="100" r="4" fill="#ddd" opacity="0.5"/>
  <circle cx="65" cy="95" r="5" fill="#ddd" opacity="0.3"/>
</svg>